HIERARCHY
ROOT Hips
{
 OFFSET 0.000000 0.000000 0.000000
 CHANNELS 6 Xposition Yposition Zposition Yrotation Xrotation Zrotation
 JOINT Chest
 {
  OFFSET 0.000000 13.173100 -0.061900
  CHANNELS 3 Yrotation Xrotation Zrotation
  JOINT Chest2
  {
   OFFSET 0.000000 8.040800 0.126200
   CHANNELS 3 Yrotation Xrotation Zrotation
   JOINT Chest3
   {
    OFFSET 0.000000 7.994400 0.000000
    CHANNELS 3 Yrotation Xrotation Zrotation
    JOINT Chest4
    {
     OFFSET 0.000000 7.986200 0.000000
     CHANNELS 3 Yrotation Xrotation Zrotation
     JOINT Neck
     {
      OFFSET 0.000000 12.259400 0.000000
      CHANNELS 3 Yrotation Xrotation Zrotation
      JOINT Head
      {
       OFFSET 0.000000 7.518700 0.267100
       CHANNELS 3 Yrotation Xrotation Zrotation
       End Site
       {
        OFFSET 0.000000 13.617700 0.141000
       }
      }
     }
     JOINT RightCollar
     {
      OFFSET -2.983800 8.314300 0.000000
      CHANNELS 3 Yrotation Xrotation Zrotation
      JOINT RightShoulder
      {
       OFFSET -16.133400 0.000000 0.000000
       CHANNELS 3 Yrotation Xrotation Zrotation
       JOINT RightElbow
       {
        OFFSET 0.000000 -29.822100 0.000000
        CHANNELS 3 Yrotation Xrotation Zrotation
        JOINT RightWrist
        {
         OFFSET 0.000000 -24.437700 0.010900
         CHANNELS 3 Yrotation Xrotation Zrotation
         End Site
         {
          OFFSET 0.000000 -18.312300 0.000000
         }
        }
       }
      }
     }
     JOINT LeftCollar
     {
      OFFSET 2.983800 8.314300 0.000000
      CHANNELS 3 Yrotation Xrotation Zrotation
      JOINT LeftShoulder
      {
       OFFSET 16.133400 0.000000 0.000000
       CHANNELS 3 Yrotation Xrotation Zrotation
       JOINT LeftElbow
       {
        OFFSET 0.000000 -29.822100 0.000000
        CHANNELS 3 Yrotation Xrotation Zrotation
        JOINT LeftWrist
        {
         OFFSET 0.000000 -24.437700 0.010900
         CHANNELS 3 Yrotation Xrotation Zrotation
         End Site
         {
          OFFSET 0.000000 -18.312300 0.000000
         }
        }
       }
      }
     }
    }
   }
  }
 }
 JOINT RightHip
 {
  OFFSET -11.206700 0.306200 0.030900
  CHANNELS 3 Yrotation Xrotation Zrotation
  JOINT RightKnee
  {
   OFFSET 0.000000 -57.334900 0.009400
   CHANNELS 3 Yrotation Xrotation Zrotation
   JOINT RightAnkle
   {
    OFFSET 0.000000 -43.376200 0.036600
    CHANNELS 3 Yrotation Xrotation Zrotation
    JOINT RightToe
    {
     OFFSET 0.000000 -10.035500 18.363100
     CHANNELS 3 Yrotation Xrotation Zrotation
     End Site
     {
      OFFSET 0.000000 -1.618500 7.239000
     }
    }
   }
  }
 }
 JOINT LeftHip
 {
  OFFSET 11.206700 0.306200 0.030900
  CHANNELS 3 Yrotation Xrotation Zrotation
  JOINT LeftKnee
  {
   OFFSET 0.000000 -57.334900 0.009400
   CHANNELS 3 Yrotation Xrotation Zrotation
   JOINT LeftAnkle
   {
    OFFSET 0.000000 -43.376200 0.036600
    CHANNELS 3 Yrotation Xrotation Zrotation
    JOINT LeftToe
    {
     OFFSET 0.000000 -10.035500 18.363100
     CHANNELS 3 Yrotation Xrotation Zrotation
     End Site
     {
      OFFSET 0.000000 -1.618500 7.239000
     }
    }
   }
  }
 }
}
MOTION
Frames: 8
Frame Time: 0.008333
-96.518096 64.955704 88.744500 173.822564 -36.319645 -2.494860 2.057285 19.560331 1.125617 0.235812 2.410350 0.237964 0.393185 3.960644 0.396591 1.934991 16.925391 1.933191 1.413515 15.523200 -0.515676 2.787948 -7.120193 -1.528364 -3.407517 -0.060154 -2.791056 -7.359221 -1.594946 4.447936 -107.528072 -81.537191 113.856663 18.244280 18.622080 42.480328 -3.216947 1.906191 -0.183490 14.941984 -5.373782 1.610301 107.887781 -73.125283 -121.394292 -25.034145 25.709277 -50.953022 -5.291868 -44.055373 3.745202 -134.597835 85.177422 -129.575526 -0.032902 -11.191641 -3.940359 0.265739 -0.607682 0.121122 -2.465669 -41.212716 4.007906 73.487005 82.751226 63.406329 -6.101962 -12.534469 8.023191 0.519066 1.087345 0.316498
-96.530205 64.942624 88.758043 173.878040 -36.302244 -2.487009 2.017440 19.545970 1.093963 0.235283 2.412136 0.237515 0.392240 3.963409 0.395708 1.928474 16.934189 1.929705 1.387863 15.445716 -0.530956 2.740231 -7.253982 -1.545967 -3.406059 -0.106860 -2.831861 -7.492665 -1.578836 4.228560 -109.487001 -81.164364 116.011205 18.734278 18.380036 44.541403 -3.220080 1.898510 -0.182284 15.104537 -5.361834 1.754958 107.560781 -72.301499 -121.649094 -24.919546 25.596834 -52.096536 -5.294751 -44.076457 3.686223 -134.594943 85.178769 -129.575882 -0.047184 -11.197476 -3.936941 0.274346 -0.599779 0.134349 -2.453597 -41.234359 3.957758 73.304902 82.735986 63.200732 -6.119276 -12.506588 8.060205 0.511685 1.086100 0.308343
-96.530790 64.935400 88.765354 173.904419 -36.320377 -2.508463 2.016463 19.566666 1.108504 0.235012 2.414175 0.237484 0.391559 3.966680 0.395649 1.921636 16.937826 1.928905 1.361757 15.373933 -0.548084 2.692174 -7.383775 -1.561445 -3.395320 -0.150205 -2.869315 -7.612760 -1.563116 3.998087 -110.904491 -80.633821 117.621676 19.184790 18.119525 46.687262 -3.224932 1.885746 -0.189158 15.290965 -5.351717 1.895670 106.940530 -71.368786 -121.659069 -24.825246 25.568564 -53.292368 -5.268458 -44.053998 3.667825 -134.462133 85.178272 -129.415180 -0.063049 -11.197782 -3.935470 0.286860 -0.595779 0.144956 -2.444289 -41.223684 3.960096 73.240656 82.748387 63.149259 -6.134423 -12.495431 8.068044 0.527228 1.080170 0.310165
-96.532347 64.928340 88.771546 173.926321 -36.335449 -2.521856 2.015979 19.586989 1.116347 0.234614 2.416084 0.237520 0.401885 3.980801 0.395236 1.899649 16.920641 1.929439 1.314329 15.263835 -0.580202 2.661956 -7.459384 -1.564254 -3.374649 -0.188419 -2.906191 -7.720589 -1.547327 3.760376 -111.671880 -79.926040 118.577357 19.597260 17.867539 48.933022 -3.218118 1.880748 -0.200604 15.482031 -5.351101 2.025656 106.026875 -70.309253 -121.427347 -24.742078 25.627824 -54.552542 -5.255323 -44.034421 3.653968 -134.488157 85.193251 -129.429339 -0.085339 -11.199372 -3.936314 0.295450 -0.590316 0.156981 -2.456171 -41.209629 3.960729 73.190327 82.748263 63.092896 -6.121164 -12.502423 8.071405 0.506610 1.085235 0.305434
-96.533090 64.920591 88.777708 173.946703 -36.341830 -2.537312 2.027627 19.602199 1.129091 0.231450 2.419592 0.238024 0.389044 3.976433 0.396520 1.895387 16.931377 1.927124 1.282854 15.198049 -0.591202 2.609395 -7.582324 -1.581460 -3.352336 -0.243328 -2.937463 -7.823805 -1.534744 3.517160 -111.792676 -79.042626 118.891670 19.951524 17.656610 51.277212 -3.209071 1.871506 -0.221941 15.667039 -5.374278 2.154018 104.857175 -69.111956 -120.987697 -24.672110 25.750913 -55.915982 -5.247107 -44.023171 3.648489 -134.641752 85.223644 -129.578109 -0.119459 -11.199369 -3.928946 0.298358 -0.584025 0.163508 -2.452176 -41.206496 3.965854 73.144818 82.754413 63.043976 -6.129897 -12.502026 8.092692 0.494778 1.082330 0.294671
-96.535542 64.911780 88.783532 173.969801 -36.338674 -2.546789 2.015299 19.602123 1.127971 0.227368 2.418869 0.238021 0.388684 3.977459 0.396590 1.896443 16.965462 1.931996 1.246385 15.119003 -0.607832 2.555794 -7.694308 -1.598678 -3.341672 -0.298480 -2.956432 -7.922708 -1.551262 3.261464 -111.346288 -77.993966 118.666746 20.251694 17.533384 53.728932 -3.206799 1.845979 -0.236590 15.852532 -5.406400 2.258635 103.504226 -67.776658 -120.404023 -24.624948 25.897208 -57.447850 -5.249478 -44.024741 3.636724 -134.653673 85.230152 -129.586826 -0.123173 -11.197764 -3.933234 0.305428 -0.582174 0.171640 -2.423683 -41.212805 3.956529 73.058058 82.764847 62.957969 -6.145225 -12.499177 8.116309 0.490874 1.081011 0.295609
-96.536904 64.904143 88.786211 173.982213 -36.343442 -2.553721 2.014380 19.604000 1.131984 0.225780 2.428134 0.237420 0.387253 3.982317 0.397408 1.885474 16.963799 1.932672 1.224818 15.079964 -0.619261 2.492742 -7.796859 -1.614837 -3.323472 -0.325289 -2.974960 -8.038884 -1.580538 3.017250 -110.439962 -76.802446 118.018187 20.512871 17.543115 56.301537 -3.196449 1.852080 -0.252956 16.031321 -5.451658 2.349870 102.031958 -66.313729 -119.737547 -24.587225 26.032616 -59.187407 -5.246940 -44.018523 3.629501 -134.637329 85.231285 -129.565146 -0.126011 -11.195535 -3.937050 0.312049 -0.582091 0.175850 -2.410429 -41.210300 3.951065 73.031420 82.768121 62.935208 -6.146980 -12.503465 8.123179 0.488631 1.080118 0.293862
-96.539786 64.898448 88.784106 174.011808 -36.362506 -2.563122 1.998163 19.613815 1.128489 0.228432 2.431439 0.238975 0.382426 3.980977 0.398042 1.867353 16.964779 1.930018 1.225075 15.077898 -0.624167 2.406508 -7.891493 -1.627459 -3.292793 -0.347557 -3.003114 -8.179794 -1.608973 2.799640 -109.198835 -75.499620 117.063899 20.760097 17.694783 59.007272 -3.183727 1.871870 -0.266247 16.202779 -5.498920 2.422831 100.492340 -64.731666 -119.041812 -24.541372 26.144257 -61.126444 -5.238181 -43.997365 3.602867 -134.592074 85.216848 -129.510912 -0.117202 -11.199648 -3.935188 0.314246 -0.586688 0.180463 -2.403020 -41.193050 3.931405 73.004599 82.772804 62.919445 -6.150059 -12.506633 8.116558 0.498824 1.077234 0.300101
